<?xml version="1.0" encoding="utf-8"?>
<!-- Generator: Adobe Illustrator 27.5.0, SVG Export Plug-In . SVG Version: 6.00 Build 0)  -->
<svg version="1.1" xmlns="http://www.w3.org/2000/svg" xmlns:xlink="http://www.w3.org/1999/xlink" x="0px" y="0px"
	 viewBox="0 0 500 500" style="enable-background:new 0 0 500 500;" xml:space="preserve">
<g id="BACKGROUND">
</g>
<g id="OBJECTS">
	<path style="fill:#FFF5D9;" d="M58.288,392.535h387.995c0,0,24.717-44.521,24.717-82.655c0-18.415-3.924-37.284-14.504-53.106
		s-29.958-28.017-50.62-27.055c-17.092,0.796-33.403,10.197-50.259,7.552c-17.486-2.745-29.096-17.379-37.377-31.357
		c-7.22-12.187-13.442-24.842-18.602-37.831c-3.126-7.869-5.953-16.02-11.551-22.716c-9.123-10.914-24.808-16.523-40.093-16.656
		c-7.127-0.062-14.378,0.988-20.719,3.884c-15.959,7.288-22.671,23.992-29.321,38.818c-14.492,32.314-39.22,65.209-77.367,72.827
		c-15.686,3.133-32.61,1.694-47.312,7.48c-14.937,5.878-25.29,18.417-32.286,31.549c-15.657,29.388-16.987,65.835,2.036,93.605
		C47.088,382.807,52.119,388.327,58.288,392.535z"/>
	<g>
		<rect x="356.959" y="355.615" style="fill:#FFC366;" width="87.982" height="11.627"/>
		<rect x="356.959" y="328.284" style="fill:#FFC366;" width="87.982" height="11.627"/>
		<polygon style="fill:#FFDFAD;" points="371.98,392.535 351.594,392.535 351.594,317.965 361.787,306.699 371.98,317.965 		"/>
		<polygon style="fill:#FFDFAD;" points="412.216,392.535 391.83,392.535 391.83,317.965 402.023,306.699 412.216,317.965 		"/>
		<polygon style="fill:#FFDFAD;" points="452.452,392.535 432.066,392.535 432.066,317.965 442.258,306.699 452.452,317.965 		"/>
	</g>
	<g>
		<path style="fill:#193441;" d="M277.402,227.848c-0.407-0.459-1.097,0.173-0.704,0.638c0.343,0.405,0.664,0.823,0.969,1.248
			c-0.386-0.344-0.9-0.522-1.411-0.376c-0.231-0.024-0.465-0.007-0.691,0.075c-0.109,0.039-0.209,0.09-0.299,0.149
			c-0.269-0.197-0.779,0.015-0.715,0.455c0.023,0.158,0.057,0.312,0.093,0.465c-0.004,0.015-0.01,0.03-0.013,0.046
			c-0.345-0.19-0.859,0.148-0.615,0.565c2.459,4.201,3.971,8.678,4.494,13.518c0.017,0.158,0.179,0.32,0.329,0.356
			c2.953,0.699,2.944-4.688,2.878-6.435C281.568,234.585,280.03,230.808,277.402,227.848z"/>
		<path style="fill:#193441;" d="M269.798,230.15c-0.378-0.483-1.106,0.105-0.741,0.593c0.318,0.425,0.612,0.862,0.891,1.305
			c-0.364-0.367-0.866-0.576-1.385-0.462c-0.229-0.038-0.464-0.035-0.695,0.032c-0.112,0.033-0.214,0.077-0.308,0.131
			c-0.256-0.213-0.778-0.033-0.742,0.411c0.013,0.159,0.038,0.315,0.064,0.47c-0.005,0.015-0.012,0.029-0.016,0.045
			c-0.333-0.211-0.866,0.095-0.648,0.526c2.197,4.343,3.433,8.904,3.659,13.767c0.007,0.159,0.159,0.331,0.307,0.375
			c2.905,0.878,3.225-4.5,3.266-6.247C273.545,237.129,272.241,233.265,269.798,230.15z"/>
		<path style="fill:#193441;" d="M323.514,368.486"/>
		<path style="fill:#193441;" d="M389.793,370.477"/>
		<path style="fill:#75AAEE;" d="M300.863,331.44c1.294-0.589,2.688-1.199,4.137-1.761c-2.063-3.397-4.167-6.766-6.363-10.072
			c-0.901-1.362,46.366,2.765,46.366,2.765c-0.859-12.479-2.691-24.87-5.306-37.127l-62.61,18.276l-0.338,0.251
			c-3.949,2.94-5.211,8.42-2.757,12.844c1.333,2.403,2.818,4.702,4.294,7.007c1.516,2.278,3.034,4.554,4.62,6.783
			c0.86,1.213,3.115,4.485,6.042,8.698C292.33,335.799,296.579,333.388,300.863,331.44z"/>
		<path style="fill:#FFC0A9;" d="M356.728,234.455c-0.039-0.088-0.117-0.21-0.159-0.331l-0.074-0.182l-0.057-0.046v-0.023
			c0,0.039-0.075-0.421-0.01-0.21l0.062,0.031l0.088,0.251l0.175,0.503l0.046,0.135
			C356.785,234.552,356.773,234.522,356.728,234.455z"/>
		<path style="fill:#193441;" d="M324.818,364.715c-3.088-8.019-20.641-36.431-20.641-36.431s-13.977,5.958-15.952,9.78
			c0,0,25.907,31.551,27.216,36.311c0.091,2.967-0.64,6.134-3.382,7.589c-0.476,0.067-0.957,0.112-1.448,0.12l-1.6,0.025
			c-1.084,0.039-2.009,0.869-2.116,2.014c-0.122,1.304,0.976,2.384,2.286,2.389l6.502,0.024l10.231-8.167
			c2.481-1.558,3.23-4.833,1.672-7.314L324.818,364.715"/>
		<path style="fill:#91BAEE;" d="M347.412,359.529c1.494-3.521,2.701-7.182,2.487-10.6c-0.075-1.191,0.049-2.376,0.383-3.462
			c-3.653-1.233-7.325-2.4-11.019-3.487c-1.566-0.464-3.141-0.896-4.719-1.319l37.73-30.383c2.249-1.811,3.919-4.281,4.59-7.09
			c0.004-0.017,0.008-0.035,0.013-0.052c1.247-5.293,0.227-10.59-2.43-14.873c-2.649-4.27-13.115-17.605-13.115-17.605
			l-31.464,14.158c0,0,9.136,7.585,8.732,9.304l-26.184,49.398l-0.098,0.41c-1.134,4.791,1.423,9.799,6.147,11.609
			c2.566,0.983,5.182,1.789,7.794,2.606c2.625,0.77,5.252,1.536,7.9,2.224c1.544,0.403,5.843,1.59,11.328,3.077
			C346.073,362.127,346.716,360.818,347.412,359.529z"/>
		<path style="fill:#193441;" d="M384.646,375.53c-0.126,2.601-0.991,5.167-3.378,6.434c-0.476,0.067-0.957,0.112-1.448,0.12
			l-1.6,0.025c-0.885,0.032-1.665,0.592-1.979,1.42c-0.545,1.438,0.514,2.977,2.051,2.983l6.601,0.024l10.231-8.167
			c2.481-1.558,3.23-4.833,1.672-7.314l-5.663-6.938c-12.383-14.499-42.404-19.167-42.404-19.167s-2.485,3.811-3.243,8.936
			c-0.758,5.125,0,9.558,0,9.558s15.07,3.611,24.417,6.401C379.25,372.635,383.791,371.425,384.646,375.53z"/>
		<path style="fill:#FFC0A9;" d="M306.038,256.457c0,0-0.545,1.257-1.499,3.457c-0.983,2.239-2.293,5.503-3.795,9.397
			c-1.466,3.891-3.11,8.485-4.286,13.207c-0.573,2.325-0.985,4.764-1.042,6.639c-0.035,0.899,0.096,1.661,0.068,1.712
			c-0.021,0.034-0.148-0.126-0.413-0.305c-0.058-0.053-0.135-0.084-0.204-0.119c-0.032-0.02-0.067-0.038-0.103-0.051l-0.055-0.018
			l-0.014-0.003c0.037,0.02-0.41-0.201-0.205-0.099l0.06,0.033l0.911,0.496c0.153,0.068,0.267,0.141,0.446,0.234l0.734,0.309
			c0.531,0.195,1.075,0.384,1.668,0.567c1.175,0.374,2.442,0.708,3.758,1.005c2.629,0.642,5.385,1.183,8.101,1.735
			c5.436,1.098,10.692,2.317,15.148,3.826c1.115,0.37,2.18,0.768,3.183,1.197c0.999,0.428,1.952,0.838,2.896,1.143
			c0.938,0.319,1.849,0.605,2.669,0.944c0.817,0.356,1.551,0.728,2.156,1.177c1.239,0.846,2.006,1.813,2.432,2.526
			c0.43,0.719,0.556,1.175,0.556,1.175c0.484,1.742-0.536,3.546-2.278,4.03c-0.423,0.117-0.849,0.146-1.259,0.098l-0.66-0.082
			c0,0-0.4-0.049-0.957-0.277c-0.271-0.12-0.616-0.255-0.987-0.443c-0.355-0.203-0.768-0.431-1.201-0.732
			c-0.89-0.554-1.832-1.526-3.199-2.365c-0.678-0.42-1.476-0.732-2.364-0.948c-0.875-0.244-1.816-0.462-2.816-0.651
			c-1.994-0.392-4.226-0.633-6.628-0.779c-2.406-0.129-4.987-0.16-7.71-0.181c-2.723-0.025-5.596-0.021-8.657-0.168
			c-1.529-0.098-3.118-0.247-4.782-0.492c-0.829-0.121-1.691-0.309-2.564-0.505l-1.348-0.363c-0.506-0.157-1.068-0.358-1.596-0.55
			l-1.075-0.421l-0.064-0.025c0.184,0.093-0.283-0.138-0.266-0.13l-0.073-0.038l-0.29-0.157l-0.573-0.33
			c-0.374-0.233-0.729-0.501-1.081-0.77c-1.387-1.117-2.369-2.495-3.028-3.763c-1.299-2.579-1.597-4.743-1.812-6.697
			c-0.33-3.873,0.08-7.075,0.526-10.113c0.468-3.017,1.109-5.793,1.786-8.379c0.668-2.588,1.392-4.973,2.106-7.151
			c1.403-4.363,2.823-7.868,3.801-10.341c0.49-1.236,0.922-2.193,1.211-2.858c0.306-0.685,0.47-1.051,0.47-1.051
			c1.758-3.931,6.369-5.693,10.301-3.935c3.903,1.745,5.668,6.303,3.973,10.215L306.038,256.457z"/>
		<path style="fill:#FFDFAD;" d="M334.858,296.089c0,0-9.724-10.554-17.215-19.071c-5.594-6.36-9.039-2.529-14.008-6.604
			c-3.995-3.278-4.245-8.37-4.434-8.697l-11.68-2.36c0,0,1.504-10.12,7.978-17.673l5.34-7.834c5.363-4.752,7.396-6.589,13.006-8.207
			c2.999-0.865,10.614-2.448,10.614-2.448s3.909,7.101,7.132,12.474c4.849,8.082,10.716,16.201,16.302,22.645
			c3.466,3.999,13.948,10.79,17.79,13.672C361.4,281.62,349.113,290.987,334.858,296.089z"/>
		<path style="fill:#FFC0A9;" d="M369.793,276.033c-0.07-0.281-0.148-0.631-0.263-1.021c-0.134-0.376-0.292-0.805-0.501-1.274
			c-0.396-0.937-1.139-2.007-1.759-3.435c-0.651-1.42-0.686-3.24-0.792-5.198c-0.083-1.971,0.043-4.148,0.259-6.473
			c0.252-2.327,0.613-4.797,1.032-7.405c0.41-2.613,0.879-5.339,1.259-8.267c0.201-1.458,0.317-2.976,0.398-4.57
			c0.083-1.594,0.067-3.259-0.143-5.093c-0.016-0.209-0.053-0.47-0.102-0.754l-0.141-0.819l-0.135-0.694l-0.111-0.521l-0.055-0.26
			l-0.007-0.033c0.058,0.19-0.085-0.291-0.081-0.273l-0.048-0.147l-0.1-0.294c-0.135-0.392-0.283-0.778-0.473-1.154
			c-0.354-0.755-0.807-1.479-1.305-2.102c-1-1.275-2.161-2.211-3.256-2.902c-1.102-0.693-2.16-1.171-3.159-1.546
			c-3.97-1.411-7.205-1.582-10.278-1.716c-3.05-0.094-5.856,0.052-8.478,0.288c-2.619,0.228-5.047,0.54-7.264,0.894
			c-4.026,0.612-11.602,2.28-14.08,2.846c-1.518,3.458-1.026,6.279,0.235,8.478c2.302,4.014,7.126,5.852,11.629,4.786
			c1.611-0.381,3.399-0.795,4.935-1.128c1.971-0.406,4.099-0.825,6.322-1.185c2.22-0.344,4.546-0.656,6.818-0.798
			c1.131-0.067,2.252-0.092,3.286-0.048c1.031,0.034,1.984,0.139,2.652,0.281c0.485,0.093,0.721,0.214,0.73,0.142l0.013,0.039
			l0.032,0.112l0.074,0.223c0.027,0.063,0.057,0.15,0.086,0.294c0.493,1.969,0.724,4.601,0.872,7.238
			c0.172,2.656,0.234,5.415,0.334,8.114c0.195,5.415,0.551,10.658,1.305,15.178c0.337,2.276,1.02,4.303,1.277,6.22
			c0.142,0.956,0.297,1.877,0.488,2.717c0.232,0.838,0.474,1.599,0.819,2.249c0.313,0.658,0.666,1.213,1.037,1.66
			c0.358,0.451,0.697,0.807,1.02,1.064c0.623,0.526,1.04,0.72,1.04,0.72c0.374,0.172,0.801,0.284,1.238,0.304
			c1.807,0.081,3.337-1.318,3.418-3.124l0.029-0.649C369.902,276.999,369.92,276.607,369.793,276.033z"/>
		<g>
			<path style="fill:#FFC0A9;" d="M287.563,203.52c-8.411-7.635-18.898-6.847-24.82-1.26c-5.923,5.587-7.358,16.045-0.291,24.948
				c4.139,5.215,10.034,9.525,13.579,11.86c2.109,1.39,4.465,2.252,6.837,2.464c5.436,0.489,11.135-0.367,13.872-2.949
				c2.737-2.582,3.943-8.238,3.795-13.716c-0.064-2.39-0.775-4.805-2.025-7.004C296.408,214.168,292.491,207.993,287.563,203.52z"/>
			<path style="fill:#193441;" d="M287.232,216.357c0.501,0.548,1.351,0.587,1.899,0.086c0.548-0.501,0.587-1.351,0.086-1.899
				c-0.501-0.548-1.351-0.587-1.9-0.086C286.77,214.958,286.731,215.809,287.232,216.357z"/>
			<path style="fill:#193441;" d="M275.646,226.94c0.501,0.548,0.462,1.399-0.086,1.9c-0.548,0.501-1.399,0.462-1.9-0.086
				c-0.501-0.548-0.462-1.399,0.086-1.9C274.295,226.353,275.145,226.392,275.646,226.94z"/>
			<path style="fill:#FFFFFF;" d="M291.676,226.311c0.502-0.459,1.354-0.198,1.445,0.476c0.267,1.975-0.398,4.04-1.982,5.486
				c-1.555,1.42-3.624,1.905-5.538,1.501c-0.712-0.151-0.98-1.02-0.443-1.51L291.676,226.311z"/>
			<g>
				<path style="fill:#FFAF8A;" d="M289.832,221.631c0.818,0.895,2.417,0.765,3.573-0.29c1.156-1.056,1.43-2.637,0.612-3.532
					s-2.417-0.765-3.573,0.291C289.288,219.155,289.014,220.736,289.832,221.631z"/>
			</g>
			<path style="fill:#FFAF8A;" d="M280.664,230.005c0.818,0.895,0.544,2.476-0.612,3.532c-1.156,1.056-2.755,1.186-3.573,0.29
				c-0.818-0.895-0.543-2.476,0.612-3.532C278.247,229.241,279.846,229.11,280.664,230.005z"/>
		</g>
		<path style="fill:#FFC0A9;" d="M290.3,238.749l3.575,5.024c0,0,6.311-0.385,8.57-3.072c2.26-2.687,0.607-8.801,0.607-8.801
			l-4.469-3.1L290.3,238.749z"/>
		<path style="fill:#193441;" d="M272.9,193.217c-2.118-2.239-5.82-3.086-8.399-1.399c-1.635,1.069-2.576,2.897-3.825,4.399
			c-2.149,2.584-5.21,4.195-7.962,6.123c-2.752,1.928-5.398,4.487-5.948,7.802c-0.578,3.486,1.301,6.894,3.43,9.714
			c2.129,2.82,4.637,5.505,5.653,8.889c0.829,2.763,0.59,5.797,1.682,8.467c1.141,2.788,3.765,4.917,6.728,5.458
			c2.181,0.398,4.773-0.236,5.813-2.194c0.837-1.576,0.439-3.532-0.298-5.158c-0.737-1.626-1.792-3.115-2.299-4.827
			c-1.355-4.577,1.303-9.31,3.828-13.361c4.351-6.982,4.036-13.35,4.19-15.319C275.732,198.739,275.018,195.456,272.9,193.217z"/>
		<path style="fill:#193441;" d="M294.245,211.191c0.614-4.259,1.132-9.919-1.736-13.127c-1.612-1.803-3.994-2.703-6.332-3.324
			c-4.201-1.116-21.762-2.919-13.662,5.684C278.281,206.547,288.558,204.809,294.245,211.191z"/>
		<circle style="fill:#193441;" cx="255.529" cy="197.964" r="12.276"/>
	</g>
	<g>
		<g>
			<path style="fill:#93CB89;" d="M236.375,349.327c2.936-2.436,2.97-7.574,0.068-10.049c-1.484-1.265-3.532-1.878-4.675-3.458
				c-2.943-4.067,2.307-10.728-1.034-14.475c-1.538-1.726-4.325-1.805-6.413-0.812c-2.088,0.992-3.641,2.815-5.128,4.586
				l-5.913,5.548c-2.899,4.693-3.73,10.432-3.324,15.933c0.406,5.501,1.969,10.843,3.566,16.122
				c0.887,2.934,1.815,5.919,3.577,8.427c1.762,2.508,4.527,4.506,7.592,4.568c4.426,0.09,7.956-3.72,10.012-7.64
				c1.435-2.736,2.463-6.058,1.161-8.859c-1.08-2.324-3.703-4.463-2.778-6.853C233.633,350.953,235.209,350.294,236.375,349.327z"/>
			<path style="fill:#5DB18C;" d="M226.425,346.559c-1.126-0.75-2.512-1.144-3.428-2.141c-1.182-1.287-1.264-3.211-1.238-4.958
				c0.04-2.716,0.182-5.43,0.425-8.136c0.273-3.043,0.645-6.265-0.673-9.021c-1.318-2.756-5.092-4.567-7.525-2.719
				c-2.755,2.093-1.729,6.829-4.157,9.295c-1.024,1.04-2.492,1.484-3.751,2.222c-3.118,1.827-4.88,5.713-4.201,9.262
				c0.835,4.361,4.906,8.432,3.29,12.568c-0.498,1.273-1.49,2.297-2.047,3.546c-3.011,6.74,10.331,25.88,17.552,17.792
				C225.206,369.192,234.361,351.848,226.425,346.559z"/>
		</g>
		<g>
			<path style="fill:#93CB89;" d="M294.385,337.004c0.661-1.557,0.674-3.585-0.583-4.716c-1.279-1.15-3.392-0.983-4.614-2.194
				c-2.102-2.081,0.256-5.652-0.289-8.559c-0.464-2.474-3.483-4.097-5.802-3.12c-0.79,0.333-1.461,0.897-2.233,1.269
				c-4.979,2.396-11.61-3.859-15.988-0.488c-1.777,1.368-2.27,3.796-2.64,6.008c-0.391,2.342-0.782,4.683-1.173,7.024
				c-0.159,0.953-0.318,1.936-0.099,2.878c0.441,1.896,2.237,3.095,3.753,4.316c3.583,2.886,6.248,6.895,7.522,11.316l5.897,24.014
				c1.673-6.625,12.818-6.658,14.821-13.191c1.227-4.003-1.782-7.965-2.604-12.07c-0.555-2.772-0.064-5.741,1.355-8.186
				C292.558,339.843,293.724,338.561,294.385,337.004z"/>
			<path style="fill:#5DB18C;" d="M261.022,359.81c-0.787-2.456,1.907-4.856,1.598-7.417c-0.242-2.001-2.165-3.277-3.485-4.8
				c-3.294-3.8-2.549-10.372,1.511-13.339c2.223-1.624,5.443-2.586,6.049-5.272c0.184-0.815,0.076-1.685,0.334-2.48
				c0.625-1.926,2.975-2.57,4.969-2.92c1.628-0.286,3.549-0.485,4.702,0.699c0.628,0.645,0.87,1.571,0.993,2.463
				c0.667,4.852-1.46,9.673-1.433,14.571c0.005,0.922,0.11,1.904,0.683,2.627c0.667,0.841,1.792,1.127,2.777,1.553
				c3.554,1.536,5.784,5.662,5.123,9.477c-0.309,1.781-1.161,3.417-1.693,5.145c-1.287,4.176-0.412,22.902-9.5,16.817
				c-3.423-2.292-3-6.106-4.505-9.427C267.488,363.852,262.106,363.192,261.022,359.81z"/>
		</g>
		<g>
			<path style="fill:#93CB89;" d="M310.731,334.918c-1.351,1.06-3.233,1.673-3.873,3.266c-1.427,3.552,4.846,6.75,3.549,10.352
				c-0.438,1.217-1.645,1.98-2.326,3.08c-1.159,1.873-0.596,4.32,0.276,6.343c2.066,4.798,5.704,8.903,10.218,11.532
				c0.772,0.45,1.592,0.877,2.142,1.581c1.926,2.464-0.158,7.163,2.609,8.621c1.294,0.682,2.977,0.018,3.878-1.134
				c0.901-1.152,1.193-2.657,1.375-4.108c0.808-6.46-0.045-12.941-0.252-19.408c-0.199-6.224,0.891-12.068,1.741-18.192
				c0.933-6.72-0.302-18.396-10.598-16.319C313.28,321.78,315.132,331.466,310.731,334.918z"/>
			<path style="fill:#5DB18C;" d="M339.708,364.664c-0.118-2.91-1.861-5.576-1.937-8.488c-0.076-2.92,1.521-5.591,2.282-8.411
				c0.762-2.82,0.244-6.528-2.474-7.598c-1.051-0.414-2.312-0.368-3.177-1.095c-1.018-0.854-1.048-2.382-0.996-3.71
				c0.169-4.282,0.337-8.563,0.506-12.845c0.017-0.437,0.027-0.903-0.202-1.275c-0.21-0.341-0.585-0.542-0.956-0.693
				c-4.837-1.972-10.4,2.7-11.003,7.889c-0.447,3.843,0.833,8.374-1.842,11.169c-0.951,0.994-2.268,1.564-3.262,2.516
				c-2.896,2.771-2.072,7.686,0.012,11.109c2.084,3.424,5.185,6.246,6.65,9.977c0.87,2.214,1.069,4.577,0.942,6.934
				c-0.103,1.905-1.815,5.685-1.258,7.397c1.578,4.85,7.492,0.421,9.812-1.643C336.206,372.872,339.893,369.211,339.708,364.664z"/>
		</g>
		<g>
			<path style="fill:#93CB89;" d="M376.1,333.066c-0.541,1.122-1.763,1.705-2.79,2.41c-2.651,1.821-4.335,4.973-4.374,8.188
				c-0.01,0.836,0.107,1.73,0.65,2.366c1.071,1.253,3.412,1.1,4.063,2.614c0.469,1.091-0.315,2.321-1.224,3.086
				c-0.909,0.765-2.022,1.382-2.544,2.449c-0.978,2.001,0.673,4.339,2.561,5.521c1.888,1.182,4.169,1.882,5.559,3.622
				c1.667,2.086,1.564,5.011,1.997,7.645c0.433,2.634,2.119,5.613,4.788,5.537c3.21-0.092,4.414-4.216,4.579-7.424
				c0.718-13.931,1.467-30.072-1.534-43.816c-0.73-3.346-1.954-8.231-6.227-7.88C373.618,318.041,378.155,328.803,376.1,333.066z"/>
			<path style="fill:#5DB18C;" d="M383.999,354.22c-1.067,2.117-2.353,4.916-0.657,6.573c0.662,0.647,1.626,0.888,2.349,1.467
				c3.568,2.858-1.522,10.147,2.23,12.758c2.336,1.625,5.519-0.748,6.627-3.369c2.864-6.773-0.524-15.698,4.275-21.27
				c1.244-1.445,2.919-2.465,4.181-3.894s2.066-3.572,1.138-5.238c-1.177-2.111-4.472-2.384-5.454-4.593
				c-1.171-2.638,1.475-5.712,1.117-8.516c-0.342-2.677-2.352-5.328-4.684-6.63c-3.912-2.185-8.684-0.687-11.447,2.657
				c-3.691,4.467-1.69,7.695,0.999,11.782C388.197,341.303,386.773,348.717,383.999,354.22z"/>
		</g>
		<path style="fill:#B56B1F;" d="M417.649,391.184C411.855,378.966,400,371.408,386,371.408v0.019c-11,0-20.948,4.977-27.5,13.186
			c-6.552-8.209-16.5-13.172-27.5-13.172v0.002c-10,0-20.621,4.747-27.173,12.955C297.275,376.19,287.355,371,276.567,371h0.043
			c-10.788,0-20.773,5.191-27.325,13.4c-6.552-8.209-16.548-13.065-27.336-13.065c-13.522,0-25.829,7.576-31.623,19.794L189.818,392
			h54.694h9.59h45.103h9.59h45.103h9.591h54.694L417.649,391.184z"/>
	</g>
	<g>
		<path style="opacity:0.6;fill:#D3E3F8;" d="M112.55,112.443c-0.003-0.037-0.006-0.074-0.008-0.11
			c-0.232-1.101-0.723-2.072-1.475-2.911c-0.425-0.361-0.851-0.723-1.276-1.084c-0.928-0.587-1.94-0.911-3.036-0.973
			c-0.827-0.074-1.613,0.054-2.356,0.385c-0.814,0.207-1.53,0.611-2.147,1.21c-0.358,0.299-0.657,0.636-0.907,1.004
			c-0.247-0.781-0.643-1.488-1.202-2.112c-0.393-0.334-0.785-0.667-1.178-1.001c-0.857-0.542-1.791-0.842-2.803-0.898
			c-0.764-0.068-1.489,0.05-2.176,0.355c-0.493,0.125-0.943,0.337-1.358,0.618c-0.022-0.291-0.044-0.582-0.066-0.872
			c-0.219-1.039-0.682-1.954-1.391-2.746c-0.401-0.341-0.802-0.682-1.203-1.022c-0.875-0.554-1.829-0.86-2.863-0.917
			c-0.78-0.07-1.521,0.051-2.222,0.363c-0.768,0.195-1.443,0.576-2.025,1.141c-0.623,0.52-1.072,1.151-1.346,1.894
			c-0.383,0.665-0.581,1.389-0.593,2.172c0.019,0.256,0.039,0.512,0.058,0.769c-0.45-0.151-0.918-0.244-1.408-0.271
			c-0.703-0.063-1.37,0.046-2.002,0.327c-0.692,0.176-1.3,0.519-1.824,1.028c-0.561,0.468-0.965,1.037-1.213,1.706
			c-0.109,0.188-0.195,0.383-0.27,0.582c-0.599-0.272-1.235-0.43-1.909-0.468c-0.703-0.063-1.37,0.046-2.002,0.327
			c-0.692,0.176-1.3,0.519-1.824,1.028c-0.177,0.147-0.332,0.309-0.477,0.477H112.55z"/>
		<path style="fill:#D3E3F8;" d="M350.302,86.549c-0.159-0.212-0.327-0.419-0.507-0.62c-0.662-0.562-1.324-1.125-1.986-1.687
			c-1.444-0.914-3.019-1.419-4.725-1.514c-1.288-0.115-2.51,0.085-3.667,0.599c-1.122,0.286-2.116,0.824-2.997,1.588
			c-0.008-0.111-0.017-0.222-0.025-0.333c-0.274-1.301-0.855-2.448-1.743-3.441c-0.503-0.427-1.005-0.854-1.508-1.281
			c-1.097-0.694-2.293-1.077-3.588-1.15c-0.978-0.087-1.906,0.064-2.785,0.455c-0.357,0.091-0.691,0.224-1.016,0.378
			c-0.47-4.153-4.016-8.022-8.378-8.022c-4.81,0-9.103,3.449-9.364,8.431c-0.049,0.941,0.079,1.885,0.342,2.796
			c-0.166-0.021-0.33-0.049-0.499-0.059c-0.95-0.085-1.852,0.062-2.707,0.442c-0.935,0.238-1.757,0.701-2.466,1.389
			c-0.677,0.565-1.176,1.245-1.515,2.027H350.302z"/>
		<path style="fill:#D3E3F8;" d="M410.294,127.816h25.321c-0.294-0.809-0.723-1.553-1.303-2.225
			c-0.482-0.424-0.965-0.848-1.447-1.272c-1.056-0.694-2.214-1.087-3.474-1.179c-0.951-0.101-1.857,0.031-2.719,0.396
			c-0.145,0.034-0.283,0.084-0.424,0.13c-0.145-2.871-2.526-5.656-5.529-5.708c-3.214-0.055-6.122,2.2-6.354,5.526
			c-0.054,0.771,0.063,1.55,0.319,2.285c-0.007,0-0.013-0.001-0.02-0.001C412.696,125.733,411.234,126.585,410.294,127.816z"/>
		<path style="opacity:0.6;fill:#D3E3F8;" d="M262.989,61.363h36.043c-0.331-0.761-0.766-1.47-1.338-2.109
			c-0.537-0.456-1.074-0.912-1.61-1.368c-1.171-0.741-2.448-1.151-3.831-1.228c-1.044-0.094-2.035,0.069-2.974,0.486
			c-0.488,0.124-0.946,0.308-1.378,0.544c-0.919-1.677-2.638-2.881-5.203-2.881c-1.065,0-2.006,0.21-2.822,0.576
			c0.307-2.817-1.271-5.759-4.917-5.759c-3.755,0-5.655,3.149-5.515,6.051C265.689,55.75,263.496,58.435,262.989,61.363z"/>
		<path style="opacity:0.6;fill:#D3E3F8;" d="M420.29,151.715c-0.323-1.225-0.898-2.322-1.753-3.278
			c-0.538-0.457-1.076-0.914-1.614-1.371c-1.174-0.743-2.454-1.153-3.841-1.231c-1.047-0.094-2.041,0.069-2.981,0.487
			c-0.615,0.157-1.181,0.413-1.707,0.747c-0.026-0.341-0.051-0.682-0.077-1.023c-0.23-1.095-0.719-2.059-1.466-2.894
			c-0.423-0.359-0.846-0.718-1.268-1.077c-0.922-0.584-1.928-0.906-3.018-0.967c-0.823-0.074-1.603,0.054-2.342,0.383
			c-0.809,0.206-1.521,0.607-2.134,1.202c-0.656,0.548-1.129,1.213-1.419,1.997c-0.197,0.342-0.346,0.699-0.45,1.07
			c-0.933-0.57-1.945-0.891-3.04-0.952c-0.855-0.076-1.667,0.056-2.435,0.398c-0.841,0.214-1.581,0.631-2.218,1.25
			c-0.682,0.569-1.174,1.261-1.475,2.076c-0.107,0.186-0.2,0.376-0.281,0.57c-0.528-0.164-1.076-0.265-1.646-0.297
			c-0.893-0.08-1.74,0.059-2.542,0.415c-0.878,0.224-1.651,0.659-2.316,1.305c-0.419,0.35-0.759,0.751-1.038,1.191H420.29z"/>
	</g>
	<g>
		<g>
			<rect x="52.548" y="358.901" style="fill:#FFC366;" width="92.519" height="19.887"/>
			<rect x="52.548" y="358.901" style="opacity:0.4;fill:#E89A49;" width="23.646" height="19.887"/>
		</g>
		<g>
			<rect x="49.548" y="371.649" style="fill:#FFE79F;" width="98.519" height="19.887"/>
			<rect x="49.548" y="371.649" style="opacity:0.4;fill:#FFC366;" width="26.646" height="19.887"/>
		</g>
		<g>
			<rect x="49.548" y="344.958" style="fill:#FFE79F;" width="98.519" height="21.887"/>
			<rect x="49.548" y="344.958" style="opacity:0.4;fill:#FFC366;" width="26.646" height="21.887"/>
		</g>
		<path style="fill:#FFC366;" d="M67.908,358.635h-10.75c-1.588,0-2.875-1.287-2.875-2.875l0,0c0-1.588,1.287-2.875,2.875-2.875
			h10.75c1.588,0,2.875,1.287,2.875,2.875l0,0C70.783,357.348,69.496,358.635,67.908,358.635z"/>
		<path style="opacity:0.4;fill:#E89A49;" d="M67.908,358.635h-10.75c-1.588,0-2.875-1.287-2.875-2.875l0,0
			c0-1.588,1.287-2.875,2.875-2.875h10.75c1.588,0,2.875,1.287,2.875,2.875l0,0C70.783,357.348,69.496,358.635,67.908,358.635z"/>
	</g>
	<g>
		<path style="fill:#B56B1F;" d="M164.47,154.803c0,0-0.674,1.386-1.855,3.81c-0.149,0.301-0.307,0.618-0.472,0.951
			c-0.133,0.3-0.273,0.615-0.419,0.942c-0.299,0.652-0.622,1.357-0.968,2.11c-0.357,0.733-0.713,1.579-1.084,2.488
			c-0.383,0.897-0.785,1.84-1.205,2.824c-0.764,2.001-1.637,4.155-2.448,6.482c-0.435,1.154-0.82,2.36-1.217,3.595
			c-0.415,1.229-0.814,2.494-1.195,3.79c-0.803,2.581-1.468,5.297-2.18,8.06c-0.663,2.773-1.258,5.615-1.784,8.485
			c-0.27,1.437-0.529,2.877-0.766,4.348c-0.135,0.768-0.27,1.535-0.405,2.3l-0.052,0.3l-0.013,0.075
			c-0.009,0.133,0.049-1.024,0.023-0.517l-0.004,0.036l-0.014,0.143l-0.214,0.285l-0.198,0.12v-0.08
			c0-0.107,0.161-0.213,0.123-0.311c-0.015,0.019,0.092,0.185,0.089,0.272c0.009,0.914,0.26,2.326,0.498,3.642
			c0.235,1.344,0.538,2.733,0.834,4.098c0.594,2.739,1.262,5.425,1.941,7.96c0.686,2.534,1.387,4.929,2.088,7.119
			c0.356,1.094,0.7,2.143,1.025,3.14c0.309,1.005,0.666,1.933,1.148,2.742c0.985,1.609,2.044,2.922,2.526,4.171
			c1.088,2.444,0.619,4.313,0.619,4.313l-0.018,0.073c-0.633,2.516-3.185,4.043-5.702,3.411c-0.386-0.097-0.77-0.252-1.105-0.432
			c0,0-1.729-0.944-2.794-3.446c-0.594-1.224-0.836-2.916-1.325-4.762c-0.256-0.918-0.68-1.831-1.189-2.767
			c-0.488-0.947-1-1.942-1.535-2.981c-1.067-2.081-2.263-4.324-3.52-6.718c-1.262-2.394-2.604-4.925-3.949-7.629
			c-0.666-1.36-1.347-2.748-1.99-4.245c-0.636-1.524-1.286-3.005-1.84-5.073c-0.069-0.287-0.129-0.493-0.201-0.849
			c-0.079-0.476-0.142-0.96-0.187-1.446l-0.072-0.816l-0.013-0.143l-0.003-0.036c-0.027,0.483,0.032-0.698,0.026-0.589l-0.002-0.068
			l-0.006-0.27c-0.013-0.758-0.026-1.518-0.039-2.28c0.009-1.589,0.047-3.217,0.099-4.846c0.143-3.258,0.449-6.516,0.801-9.725
			c0.382-3.205,0.882-6.349,1.479-9.374c0.292-1.514,0.579-3.006,0.939-4.449c0.34-1.447,0.675-2.865,1.064-4.229
			c0.701-2.751,1.544-5.304,2.308-7.666c0.421-1.169,0.825-2.289,1.209-3.354c0.387-1.058,0.769-2.068,1.191-3.045
			c0.407-0.967,0.788-1.873,1.14-2.71c0.18-0.417,0.353-0.817,0.518-1.199c0.16-0.338,0.313-0.66,0.457-0.965
			c1.179-2.426,1.852-3.812,1.852-3.812c2.413-4.968,8.397-7.038,13.365-4.625c4.968,2.413,7.038,8.397,4.625,13.365L164.47,154.803
			z"/>
		<path style="fill:#B56B1F;" d="M258.436,110.215c-0.102-3.018-0.263-5.911-0.38-8.645c-0.129-2.726-0.25-5.304-0.362-7.683
			c-0.047-1.187-0.15-2.324-0.11-3.403c0.038-1.079,0.19-2.102,0.354-3.064c0.346-1.924,0.509-3.604,0.409-4.988
			c-0.077-1.384-0.367-2.471-0.639-3.212c-0.267-0.74-0.532-1.142-0.532-1.142c-0.315-0.472-0.738-0.911-1.239-1.247
			c-2.039-1.363-4.796-0.814-6.159,1.224l-0.078,0.116c0,0-0.255,0.382-0.511,1.113c-0.26,0.73-0.538,1.8-0.611,3.161
			c-0.096,1.362,0.062,3.015,0.384,4.915c0.151,0.95,0.286,1.962,0.299,3.027c0.016,1.065-0.118,2.183-0.207,3.349
			c-0.369,4.661-0.966,10.099-1.88,15.812c-0.468,2.849-0.997,5.779-1.638,8.615c-0.325,1.414-0.664,2.807-1.047,4.065
			c-0.092,0.293-0.186,0.577-0.282,0.844l-0.331,0.177l-1.855,0.97c-1.239,0.644-2.525,1.228-3.787,1.837
			c-2.54,1.199-5.156,2.239-7.714,3.2c-2.54,0.995-5.083,1.821-7.483,2.615c-1.211,0.382-2.389,0.753-3.528,1.111
			c-0.261,0.077-0.512,0.15-0.769,0.225c0.178,6.703,0.549,13.395,1.033,20.08c0.815-0.288,1.648-0.587,2.523-0.906
			c2.33-0.853,4.826-1.885,7.457-3.009c2.621-1.171,5.36-2.463,8.159-3.94c2.794-1.478,5.633-3.137,8.466-4.989
			c1.421-0.919,2.812-1.928,4.195-2.984c0.69-0.53,1.384-1.061,2.048-1.641l0.994-0.865l0.123-0.109l0.062-0.054l0.031-0.027
			c-0.471,0.377,0.677-0.544,0.568-0.459l0.294-0.299c0.439-0.43,0.848-0.907,1.203-1.406c0.186-0.281,0.328-0.519,0.483-0.787
			c0.521-0.954,0.788-1.693,0.986-2.318c0.107-0.328,0.192-0.629,0.261-0.907c0.081-0.295,0.14-0.564,0.192-0.828
			c0.217-1.062,0.343-2.007,0.446-2.924c0.19-1.815,0.277-3.508,0.306-5.162C258.638,116.374,258.553,113.238,258.436,110.215z
			 M243.749,124.181c-0.045,0.098-0.086,0.167-0.119,0.206c-0.067,0.113-0.122,0.092,0.006-0.184
			c0.049-0.103,0.088-0.173,0.168-0.291c0.047-0.07,0.104-0.134,0.155-0.202c-0.023,0.054-0.045,0.121-0.068,0.171
			C243.84,123.997,243.792,124.104,243.749,124.181z"/>
		<path style="fill:#91BAEE;" d="M245.972,110.307c-0.568,2.979-1.212,6.038-1.982,9.009c5.099,2.134,10.501,3.594,16.038,4.745
			c0.068-0.981,0.113-1.942,0.132-2.886c0.082-3.543-0.024-6.909-0.17-10.154c-0.126-3.24-0.327-6.344-0.473-9.278
			c-0.16-2.926-0.311-5.693-0.451-8.246c-0.059-1.274-0.187-2.494-0.137-3.653c0.047-1.159,0.237-2.256,0.44-3.289
			c0.431-2.064,0.633-3.868,0.509-5.354c-0.096-1.485-0.457-2.652-0.795-3.448c-0.332-0.794-0.662-1.226-0.662-1.226
			c-0.392-0.507-0.918-0.978-1.543-1.338c-2.538-1.462-5.97-0.874-7.667,1.314l-0.097,0.125c0,0-0.318,0.41-0.636,1.195
			c-0.324,0.783-0.67,1.932-0.76,3.393c-0.119,1.462,0.077,3.236,0.478,5.276c0.188,1.02,0.356,2.106,0.372,3.249
			c0.02,1.144-0.147,2.343-0.257,3.595C247.853,98.338,247.109,104.175,245.972,110.307z"/>
		
			<ellipse transform="matrix(0.0021 -1 1 0.0021 84.7396 279.4532)" style="fill:#FFDFAD;" cx="182.39" cy="97.268" rx="23.898" ry="37.581"/>
		<path style="fill:#E89C63;" d="M202.004,85.447c0,0-2.134-17.993-19.877-17.342c-17.743,0.65-19.218,17.452-19.218,17.452
			L202.004,85.447z"/>
		<path style="fill:#B56B1F;" d="M161.309,136.652c12.932-0.391,11.767-11.384,11.767-11.384l8.649-0.267l8.649,0.267
			c0,0-1.165,10.993,11.767,11.384c4.202,0.127,12.635,13.777,12.635,13.777h-59.3C155.477,150.429,159.374,136.711,161.309,136.652
			z"/>
		<path style="fill:#885017;" d="M190.788,128.693c0.25,1.024,0.647,2.164,1.287,3.258c-4.05,8.784-15.273,9.899-20.316-0.603
			c0.386-0.649,0.666-1.651,0.867-2.656H190.788z"/>
		<path style="fill:#B56B1F;" d="M201.823,97.999c-1.194-12.72-10.499-20.021-19.656-19.873
			c-9.156,0.146-18.281,7.743-19.165,20.496c-0.518,7.47,1.108,15.521,2.28,20.149c0.697,2.754,2,5.257,3.808,7.233
			c4.143,4.529,9.526,8.141,13.756,8.073c4.231-0.068,9.523-3.851,13.555-8.511c1.759-2.034,3.001-4.577,3.631-7.352
			C201.092,113.55,202.523,105.451,201.823,97.999z"/>
		<path style="fill:#FFE3BC;" d="M153.419,214.536h40.104c6.539,0,13.104-0.136,19.64,0.089l1.614-55.837l13.236-7.59
			c0,0-1.545-10.789-2.915-20.455c-7.109-1.172-27.16,4.606-27.16,4.606s-2.577,11.162-16.123,11.162
			c-13.546,0-16.794-10.692-16.794-10.692s-12.845-0.212-18.304,5.154c-5.459,5.366-6.823,13.411-10.157,25.493l13.771,6.155
			L153.419,214.536z"/>
		<path style="fill:#193441;" d="M191.28,108.408c0,0.835,0.677,1.512,1.512,1.512c0.835,0,1.512-0.677,1.512-1.512
			c0-0.835-0.677-1.512-1.512-1.512C191.957,106.896,191.28,107.573,191.28,108.408z"/>
		<path style="fill:#193441;" d="M162.964,99.37c1.225,8.351,3.084,16.187,10.042,20.675c0.717-1.154,4.224-4.195,9.68-4.195
			c5.243,0,8.544,2.953,9.36,4.195c4.296-2.859,6.673-7.001,7.865-12.201c0.286-1.247,0.202-2.347-0.138-3.288
			c1-1.886,1.671-3.982,2.079-6.173c0.617,7.345-0.779,15.247-1.819,19.831c-0.63,2.775-1.872,5.319-3.631,7.352
			c-4.032,4.661-9.324,8.443-13.555,8.511c-4.231,0.068-9.613-3.544-13.756-8.073c-1.808-1.976-3.111-4.479-3.808-7.233
			C164.15,114.297,162.598,106.625,162.964,99.37z"/>
		<path style="fill:#193441;" d="M173.632,108.408c0,0.835-0.677,1.512-1.512,1.512c-0.835,0-1.512-0.677-1.512-1.512
			c0-0.835,0.677-1.512,1.512-1.512C172.955,106.896,173.632,107.573,173.632,108.408z"/>
		<path style="fill:#FFFFFF;" d="M187.42,120.888c0.765,0,1.274,0.862,0.838,1.492c-1.275,1.843-3.395,3.052-5.807,3.052
			c-2.368,0-4.455-1.167-5.737-2.954c-0.477-0.665-0.041-1.59,0.778-1.59H187.42z"/>
		<path style="fill:#D18015;" d="M189.439,114.76c0,1.363,1.427,2.468,3.187,2.468c1.76,0,3.187-1.105,3.187-2.468
			c0-1.363-1.427-2.469-3.187-2.469C190.865,112.291,189.439,113.396,189.439,114.76z"/>
		<path style="fill:#D18015;" d="M175.473,114.76c0,1.363-1.427,2.468-3.187,2.468c-1.76,0-3.187-1.105-3.187-2.468
			c0-1.363,1.427-2.469,3.187-2.469C174.047,112.291,175.473,113.396,175.473,114.76z"/>
		<path style="fill:#193441;" d="M162.118,94.204c0.884-9.04,7.076-17.641,20.342-17.641c13.266,0,19.457,8.601,20.342,17.641
			c0.884,9.04-1.051,14.733-1.721,14.455c-1.092-0.453-2.315-2.558-2.315-6.644c0-7.802-4.026-10.541-6.92-9.922
			c-2.723,0.582-4.711,2.655-9.386,2.655c-4.675,0-6.663-2.073-9.386-2.655c-2.894-0.619-6.92,2.12-6.92,9.922
			c0,4.88-1.223,6.19-2.315,6.644C163.169,108.938,161.234,103.245,162.118,94.204z"/>
		<path style="fill:#FFDFAD;" d="M180.912,73.406c-17.147,0.465-31.138,8.171-35,18.281c2.838-1.761,4.945,3.61,4.945,3.61
			s6.184-4.589,16.119-6.176c7.927-1.266,32.44-1.364,40.864,10.672c0.244,0.011,0.489,0.03,0.734,0.06
			c3.155,0.386,6.211,1.774,8.872,3.473c0.339,0.217,0.669,0.449,1.005,0.672c1.136-2.444,1.68-5.043,1.511-7.73
			C219.131,83.08,201.648,72.844,180.912,73.406z"/>
		<g>
			<path style="fill:#B56B1F;" d="M186.342,302.31c-0.532,5.28-0.48,15.793-0.191,27.175h23.294
				c0.948-13.576,1.803-26.975,2.076-34.682c0.712-20.052,1.173-44.369,1.569-55.775c0.2-5.752-0.458-23.831-0.458-23.831
				l-34.073,10.022c0.185,6.979,1.757,14.536,2.924,22.015C184.985,269.648,187.847,287.38,186.342,302.31z"/>
			<path style="fill:#B15D16;" d="M197.646,219.605l-19.086,5.614c0.185,6.979,1.757,14.536,2.924,22.015
				c1.075,6.885,2.089,13.324,2.935,19.38C191.513,251.83,195.795,235.872,197.646,219.605z"/>
			<path style="fill:#B56B1F;" d="M155.799,303.208c-0.692,4.769-0.994,13.824-1.084,23.944h23.86
				c1.211-12.091,2.315-23.585,2.865-30.517c1.597-20.13,3.129-44.555,4.029-56.006c0.519-6.599,1.364-11.28,2.255-15.41
				l-30.926-14.053c-6.412,16.722-4.314,28.858-3.461,36.491C155.87,270.323,157.968,288.259,155.799,303.208z"/>
			<path style="fill:#B56B1F;" d="M207.537,213.485c2.774-28.667-1.79-54.253-1.79-54.253c-13.551,5.253-44.276,1.253-44.276,1.253
				v53C161.471,213.485,193.927,218.818,207.537,213.485z"/>
			<rect x="152.812" y="211.793" style="fill:#B15D16;" width="60.113" height="12.739"/>
			<g>
				<path style="fill:#B15D16;" d="M158.766,136.258c0,0,4.138-3.023,6.917-0.254c0,0,4.076,15.231,3.416,31.231
					c0,0-5.346,1.75-7.628,0C161.471,167.235,162.343,154.281,158.766,136.258z"/>
				<path style="fill:#FFE3BC;" d="M166.939,163.759c0,1.022-0.829,1.851-1.851,1.851c-1.022,0-1.851-0.829-1.851-1.851
					c0-1.022,0.829-1.851,1.851-1.851C166.11,161.908,166.939,162.736,166.939,163.759z"/>
			</g>
			<g>
				<path style="fill:#B15D16;" d="M195.766,135.258c0,0,4.138-3.023,6.917-0.254c0,0,4.076,15.231,3.416,31.231
					c0,0-5.346,1.75-7.628,0C198.471,166.235,199.343,153.281,195.766,135.258z"/>
				<path style="fill:#FFE3BC;" d="M203.939,162.759c0,1.022-0.829,1.851-1.851,1.851c-1.022,0-1.851-0.829-1.851-1.851
					c0-1.022,0.829-1.851,1.851-1.851C203.11,160.908,203.939,161.736,203.939,162.759z"/>
			</g>
		</g>
		<g>
			<path style="fill:#FFB71F;" d="M188.101,371.788l-0.229,11.986c-0.087,4.546,3.527,8.3,8.072,8.387l24.694,0.522
				c2.385,0.046,4.081-2.305,3.287-4.554l0,0c-0.458-1.296-1.647-2.191-3.02-2.272l0.098-0.096
				c-8.52-0.328-16.345-5.443-17.179-13.929c-1.385-14.097,7.615-26.764,6.615-44.68c0,0-15-2.63-25.12,0
				c0,16.083,2.458,24.329,2.62,34.482C188.101,371.788,188.101,371.788,188.101,371.788z"/>
		</g>
		<path style="fill:#FFB71F;" d="M156.601,371.788l-0.229,11.986c-0.087,4.546,3.527,8.3,8.072,8.387l24.694,0.522
			c2.385,0.046,4.081-2.305,3.287-4.554l0,0c-0.458-1.296-1.647-2.191-3.02-2.272l0.098-0.096
			c-8.52-0.328-16.345-5.443-17.179-13.929c-1.385-14.097,7.615-26.764,6.615-44.68c0,0-15-2.63-25.12,0
			c0,16.083,2.458,24.329,2.62,34.482C156.601,371.788,156.601,371.788,156.601,371.788z"/>
		<path style="fill:#91BAEE;" d="M157.644,235.02c-0.601-1.01-1.045-2.169-1.431-3.424c-0.405-1.245-0.831-2.555-1.275-3.921
			c-0.876-2.735-1.743-5.726-2.6-8.891c-0.771-2.878-1.509-5.923-2.196-9.021c-5.07,1.593-10.3,2.635-15.598,3.023
			c0.209,0.431,0.419,0.869,0.627,1.294c1.68,3.378,3.356,6.539,4.932,9.528c1.57,2.989,3.064,5.79,4.396,8.39
			c0.668,1.297,1.308,2.54,1.917,3.723c0.636,1.17,1.165,2.309,1.485,3.456c0.611,2.306,0.912,4.419,1.654,5.947
			c1.329,3.124,3.489,4.303,3.489,4.303c0.419,0.225,0.898,0.419,1.38,0.54c3.143,0.79,6.331-1.117,7.12-4.26l0.023-0.091
			c0,0,0.587-2.334-0.772-5.386C160.195,238.669,158.874,237.029,157.644,235.02z"/>
		<path style="fill:#B15D16;" d="M195.844,175.593c0,0-22.711-0.792-23.558,0c-0.848,0.792,1.5,11.941,10.666,11.951
			C197.646,187.559,195.844,175.593,195.844,175.593z"/>
	</g>
	<g>
		<g>
			<path style="fill:#D1E8E8;" d="M90.463,209.902c0,0-5.386-1.718-6.972,1.951c-1.587,3.667,4.794,6.684,9.514,0.054
				C97.725,205.278,90.463,209.902,90.463,209.902z"/>
			<path style="fill:#D1E8E8;" d="M95.286,214.098c0,0,2.446,5.097-0.968,7.175c-3.415,2.077-7.284-3.825-1.371-9.413
				C98.863,206.268,95.286,214.098,95.286,214.098z"/>
			<path style="fill:#D1E8E8;" d="M92.298,207.936c0,0-2.081-5.255,1.469-7.087c3.552-1.835,6.998,4.326,0.706,9.488
				C88.181,215.497,92.298,207.936,92.298,207.936z"/>
			<path style="fill:#D1E8E8;" d="M96.815,212.462c0,0,5.251,2.091,7.091-1.458c1.841-3.548-4.312-7.004-9.485-0.723
				C89.246,216.563,96.815,212.462,96.815,212.462z"/>
			<g>
				<path style="fill:#FFB71F;" d="M95.942,208.764c2.279,2.128,3.223,4.821,2.109,6.015c-1.117,1.194-3.867,0.438-6.146-1.692
					c-2.279-2.127-3.223-4.821-2.109-6.015C90.911,205.877,93.661,206.635,95.942,208.764z"/>
				<path style="fill:#854C00;" d="M95.113,208.072c-0.629-0.477-1.273-0.858-1.894-1.121l-3.31,3.544
					c0.305,0.602,0.731,1.218,1.251,1.814L95.113,208.072z"/>
				<path style="fill:#854C00;" d="M98.371,212.464c-0.179-0.653-0.521-1.363-1.011-2.069l-3.731,3.998
					c0.736,0.44,1.468,0.733,2.132,0.867L98.371,212.464z"/>
			</g>
		</g>
		<g>
			<path style="fill:#D1E8E8;" d="M68.47,158.704c0,0-0.008-5.653-3.985-6.044c-3.977-0.392-4.902,6.604,2.851,9.076
				C75.089,164.209,68.47,158.704,68.47,158.704z"/>
			<path style="fill:#D1E8E8;" d="M65.945,164.578c0,0-4.108,3.884-7.128,1.267c-3.02-2.618,1.42-8.103,8.546-4.177
				C74.494,165.594,65.945,164.578,65.945,164.578z"/>
			<path style="fill:#D1E8E8;" d="M70.903,159.852c0,0,4.369-3.586,7.197-0.763c2.831,2.822-1.985,7.984-8.82,3.566
				C62.445,158.238,70.903,159.852,70.903,159.852z"/>
			<path style="fill:#D1E8E8;" d="M67.969,165.534c0,0-0.389,5.639,3.552,6.308c3.941,0.671,5.355-6.243-2.206-9.254
				C61.755,159.577,67.969,165.534,67.969,165.534z"/>
			<g>
				<path style="fill:#FFB71F;" d="M71.225,163.574c-1.331,2.819-3.607,4.54-5.085,3.843c-1.477-0.699-1.597-3.549-0.263-6.369
					c1.33-2.82,3.608-4.54,5.085-3.844C72.44,157.903,72.557,160.753,71.225,163.574z"/>
				<path style="fill:#854C00;" d="M71.631,162.574c0.262-0.745,0.429-1.474,0.49-2.146l-4.385-2.071
					c-0.48,0.475-0.937,1.068-1.346,1.745L71.631,162.574z"/>
				<path style="fill:#854C00;" d="M68.443,167.017c0.568-0.37,1.139-0.912,1.662-1.594l-4.946-2.334
					c-0.194,0.835-0.25,1.621-0.175,2.295L68.443,167.017z"/>
			</g>
		</g>
		<g>
			<path style="fill:#D1E8E8;" d="M404.715,186.592c0,0,3.121-4.714,0.025-7.239c-3.096-2.527-7.738,2.79-2.647,9.138
				C407.183,194.84,404.715,186.592,404.715,186.592z"/>
			<path style="fill:#D1E8E8;" d="M399.362,190.088c0,0-5.57,0.963-6.639-2.888c-1.067-3.852,5.666-5.965,9.43,1.248
				C405.921,195.665,399.362,190.088,399.362,190.088z"/>
			<path style="fill:#D1E8E8;" d="M406.107,188.894c0,0,5.623-0.569,6.417,3.347c0.797,3.918-6.07,5.552-9.32-1.909
				C399.955,182.871,406.107,188.894,406.107,188.894z"/>
			<path style="fill:#D1E8E8;" d="M400.52,192.005c0,0-3.444,4.482-0.532,7.22c2.911,2.739,7.915-2.238,3.283-8.929
				C398.638,183.605,400.52,192.005,400.52,192.005z"/>
			<g>
				<path style="fill:#FFB71F;" d="M404.316,192.174c-2.669,1.612-5.517,1.786-6.362,0.389c-0.844-1.4,0.633-3.84,3.304-5.452
					c2.668-1.613,5.517-1.786,6.362-0.389C408.465,188.121,406.987,190.56,404.316,192.174z"/>
				<path style="fill:#854C00;" d="M405.207,191.565c0.63-0.475,1.173-0.99,1.596-1.517l-2.507-4.15
					c-0.663,0.13-1.371,0.371-2.086,0.709L405.207,191.565z"/>
				<path style="fill:#854C00;" d="M400.093,193.502c0.677,0.006,1.454-0.13,2.267-0.408l-2.829-4.68
					c-0.624,0.588-1.105,1.212-1.416,1.815L400.093,193.502z"/>
			</g>
		</g>
		<g>
			<path style="fill:#D1E8E8;" d="M335.254,122.995c0,0-5.591-0.836-6.571,3.038c-0.982,3.874,5.799,5.834,9.4-1.463
				C341.685,117.272,335.254,122.995,335.254,122.995z"/>
			<path style="fill:#D1E8E8;" d="M340.685,126.368c0,0,3.227,4.641,0.189,7.238c-3.04,2.595-7.801-2.614-2.855-9.074
				C342.966,118.067,340.685,126.368,340.685,126.368z"/>
			<path style="fill:#D1E8E8;" d="M336.752,120.761c0,0-2.893-4.855,0.321-7.23c3.213-2.378,7.597,3.155,2.209,9.254
				C333.893,128.882,336.752,120.761,336.752,120.761z"/>
			<path style="fill:#D1E8E8;" d="M341.932,124.509c0,0,5.518,1.228,6.768-2.569c1.252-3.796-5.374-6.227-9.48,0.799
				C335.115,129.765,341.932,124.509,341.932,124.509z"/>
			<g>
				<path style="fill:#FFB71F;" d="M340.481,120.998c2.589,1.737,3.95,4.245,3.042,5.601c-0.912,1.357-3.748,1.049-6.337-0.69
					c-2.59-1.737-3.95-4.245-3.042-5.602C335.054,118.95,337.889,119.259,340.481,120.998z"/>
				<path style="fill:#854C00;" d="M339.553,120.447c-0.697-0.37-1.393-0.644-2.049-0.805l-2.702,4.027
					c0.398,0.546,0.916,1.086,1.524,1.591L339.553,120.447z"/>
				<path style="fill:#854C00;" d="M343.469,124.263c-0.281-0.617-0.732-1.263-1.328-1.882l-3.045,4.542
					c0.796,0.317,1.565,0.489,2.243,0.517L343.469,124.263z"/>
			</g>
		</g>
	</g>
	<g>
		<polyline style="fill:none;stroke:#FF9800;stroke-miterlimit:10;" points="322.5,211 322.5,224.5 318,224.5 		"/>
		<polyline style="fill:none;stroke:#FF9800;stroke-miterlimit:10;" points="316.5,207 316.5,224.5 312,224.5 		"/>
		<path style="fill:#FFB71F;" d="M342.182,202.209L342.182,202.209c-3.25,8.706-12.559,13.543-21.551,11.197l0,0
			c-8.371-2.184-14.586-9.218-15.722-17.794l-0.598-4.518c-0.759-5.733,3.072-11.068,8.747-12.18l0,0
			c5.758-1.128,11.382,2.483,12.751,8.189l4.698,19.579L342.182,202.209z"/>
		<g>
			<path style="fill:#E89A49;" d="M311.504,194.62c-0.333,1.182,0.633,2.488,2.158,2.919c1.525,0.431,3.032-0.178,3.366-1.36
				c0.333-1.181-0.633-2.488-2.158-2.919C313.345,192.83,311.838,193.438,311.504,194.62z"/>
			<path style="fill:#193441;" d="M314.433,189.822c-0.278,0.699,0.063,1.49,0.761,1.769c0.699,0.278,1.49-0.063,1.769-0.761
				c0.278-0.699-0.063-1.491-0.761-1.769C315.504,188.783,314.712,189.124,314.433,189.822z"/>
		</g>
		<path style="fill:#FF9800;" d="M304.215,188.384c0,0,2.557,1.194,0.388,4.022l-3.786,0.526l1.205-2.046l-1.956-3.504
			L304.215,188.384z"/>
	</g>
	<g>
		<g>
			<rect x="90.3" y="319.097" style="fill:#B56B1F;" width="9.033" height="74.612"/>
			<rect x="90.3" y="319.097" style="fill:#885017;" width="9.033" height="16.208"/>
		</g>
		<path style="fill:#193441;stroke:#E89C63;stroke-width:3;stroke-miterlimit:10;" d="M140.555,328.466H49.078
			c-1.869,0-3.383-1.515-3.383-3.383v-56.768c0-1.869,1.515-3.383,3.383-3.383h91.477c1.869,0,3.383,1.515,3.383,3.383v56.768
			C143.939,326.951,142.424,328.466,140.555,328.466z"/>
		<text transform="matrix(1 0 0 1 60.2248 294.0921)"><tspan x="0" y="0" style="fill:#FFFFFF; font-family:'Dosis-Medium'; font-size:17.4334px; letter-spacing:1;">ORGANIC</tspan><tspan x="-0.392" y="18.015" style="fill:#FFFFFF; font-family:'Dosis-Medium'; font-size:17.4334px; letter-spacing:1;">FARMING</tspan></text>
	</g>
	<g>
		<path style="fill:#E89C63;" d="M438.85,396.333H52.877c-0.321,0.53-0.626,1.076-0.892,1.657c-0.894,1.946-1.412,4.196-1.003,6.332
			c1.392,7.257,10.418,7.18,16.897,8.811c11.632,2.929,19.395,11.121,30.959,14.369c12.074,3.391,24.001-0.148,36.262-2.716
			c33.999-7.12,45.264,7.175,74.76,7.214c29.496,0.04,53.817-13.818,77.662-11.615c10.199,0.942,28.592,6.709,38.516,9.479
			c31.241,8.719,63.752-10.749,95.815-7.307c5.462,0.586,11.001,1.834,16.381,0.606c5.38-1.228,10.675-5.836,10.916-11.963
			C449.412,404.572,444.122,399.812,438.85,396.333z"/>
		<path style="fill:#FFC366;" d="M462.667,398.375H37.333c-2.025,0-3.667-1.642-3.667-3.667l0,0c0-2.025,1.642-3.667,3.667-3.667
			h425.333c2.025,0,3.667,1.642,3.667,3.667l0,0C466.333,396.733,464.692,398.375,462.667,398.375z"/>
	</g>
</g>
</svg>
