<?xml version="1.0"?>
<svg version="1.1" xmlns="http://www.w3.org/2000/svg"><path fill="#2b83c2" d="M40.78,95.24c5.46,0,8.68,3.78,8.68,9.8c0,6.16-3.78,10.36-9.24,10.36s-8.54-3.5-8.54-9.94c0-6.16,3.5-10.22,9.1-10.22z M40.64,97.62c-3.64,0-5.74,2.38-5.74,7.7c0,5.04,1.82,7.7,5.46,7.7s5.88-2.52,5.88-7.84c0-5.04-1.96-7.56-5.6-7.56z M58.8008,100.28l0.252,2.044c0.7-0.784,2.324-2.324,4.228-2.324c1.4,0,2.52,0.42,2.52,0.42l-0.14,4.06l-1.82,0l-0.42-2.1c-2.1,0-3.444,1.372-4.06,2.184l0,8.316l2.8,0.7l0,1.54l-7.98,0l0-1.54l2.38-0.7l0-10.36l-2.38-0.56l0-1.54z M73.1816,93.56l0,8.064c0.924-0.728,2.38-1.624,4.2-1.624c4.06,0,5.88,2.94,5.88,7.28c0,4.76-2.66,8.12-7.7,8.12c-3.08,0-5.18-0.7-5.18-0.7l0-18.9l-2.24-0.56l0-1.54z M73.1816,104.06l0,8.82s0.728,0.28,2.8,0.28c3.248,0,4.34-2.52,4.34-5.6s-0.98-5.32-3.5-5.32s-3.64,1.82-3.64,1.82z M89.3824,95.66c0-1.26,0.84-1.96,1.82-1.96c1.12,0,1.82,0.56,1.82,1.96c0,1.26-0.98,1.96-1.82,1.96c-1.12,0-1.82-0.7-1.82-1.96z M94.8424,113.58l0,1.54l-7.28,0l0-1.54l2.38-0.7l0-10.36l-2.38-0.56l0-1.54l5.18-0.14l0,12.6z M102.9232,93.56l0,8.064c0.924-0.728,2.38-1.624,4.2-1.624c4.06,0,5.88,2.94,5.88,7.28c0,4.76-2.66,8.12-7.7,8.12c-3.08,0-5.18-0.7-5.18-0.7l0-18.9l-2.24-0.56l0-1.54z M102.9232,104.06l0,8.82s0.728,0.28,2.8,0.28c3.248,0,4.34-2.52,4.34-5.6s-0.98-5.32-3.5-5.32s-3.64,1.82-3.64,1.82z M118.424,104.62l-0.14-3.5s3.08-1.12,5.46-1.12c3.248,0,5.18,1.12,5.18,4.34l0,8.54l2.24,0.56l0,1.54l-4.34,0.14l-0.588-1.96c-0.952,0.952-2.632,2.24-4.592,2.24c-2.66,0-4.2-1.54-4.2-4.2c0-3.22,2.52-4.34,6.44-4.34l2.24,0l0-2.24c0-1.68-0.98-2.52-2.66-2.52s-2.828,0.42-2.828,0.42l-0.392,2.1l-1.82,0z M126.124,108.68l-1.96,0c-2.8,0-3.864,0.7-3.864,2.38c0,1.26,0.784,2.1,2.044,2.1c2.1,0,3.78-2.24,3.78-2.24l0-2.24z"/><path fill="#32c76d" d="M144.5,112.88l0-15.12l-2.38-0.56l0-1.54l5.32-0.14l3.08,0c3.948,0,6.3,1.904,6.3,5.04c0,2.716-1.232,4.564-3.64,5.46c0.448,0.392,0.952,1.12,1.68,2.52l2.212,4.452l1.988,0.448l0,1.68l-4.2,0l-2.38-5.18c-1.316-2.8-1.932-3.36-3.78-3.36l-1.26,0l0,6.3l2.38,0.56l0,1.68l-7.7,0l0-1.68z M147.44,104.48l2.1,0c2.744,0,4.34-1.288,4.34-3.5c0-1.876-1.456-3.22-3.5-3.22l-2.94,0l0,6.72z M169.3808,100c4.2,0,6.58,2.94,6.58,7.42c0,4.76-2.8,7.98-7,7.98s-6.72-2.52-6.72-7.56c0-4.76,2.94-7.84,7.14-7.84z M169.2408,102.24c-2.8,0-4.06,1.82-4.06,5.46c0,3.36,1.12,5.46,3.92,5.46s3.92-1.96,3.92-5.6c0-3.08-0.98-5.32-3.78-5.32z M184.1816,93.56l0,8.064c0.924-0.728,2.38-1.624,4.2-1.624c4.06,0,5.88,2.94,5.88,7.28c0,4.76-2.66,8.12-7.7,8.12c-3.08,0-5.18-0.7-5.18-0.7l0-18.9l-2.24-0.56l0-1.54z M184.1816,104.06l0,8.82s0.728,0.28,2.8,0.28c3.248,0,4.34-2.52,4.34-5.6s-0.98-5.32-3.5-5.32s-3.64,1.82-3.64,1.82z M205.7024,100c4.2,0,6.58,2.94,6.58,7.42c0,4.76-2.8,7.98-7,7.98s-6.72-2.52-6.72-7.56c0-4.76,2.94-7.84,7.14-7.84z M205.5624,102.24c-2.8,0-4.06,1.82-4.06,5.46c0,3.36,1.12,5.46,3.92,5.46s3.92-1.96,3.92-5.6c0-3.08-0.98-5.32-3.78-5.32z M225.5432,100.42l0,2.1l-4.06,0l0,8.988c0,1.288,0.616,1.708,1.4,1.708c0.672,0,1.456-0.308,2.184-0.7l0.756,1.484c-1.26,0.924-2.52,1.4-3.92,1.4c-1.68,0-3.22-0.924-3.22-4.06l0-8.82l-2.8,0l0-1.82l2.8-0.28l0-3.528l2.8-0.56l0,4.088l4.06,0z M231.244,95.66c0-1.26,0.84-1.96,1.82-1.96c1.12,0,1.82,0.56,1.82,1.96c0,1.26-0.98,1.96-1.82,1.96c-1.12,0-1.82-0.7-1.82-1.96z M236.704,113.58l0,1.54l-7.28,0l0-1.54l2.38-0.7l0-10.36l-2.38-0.56l0-1.54l5.18-0.14l0,12.6z M250.8048,104.9l-0.42-2.38s-1.12-0.28-2.52-0.28c-2.66,0-4.2,1.68-4.2,5.18c0,3.78,1.68,5.74,4.34,5.74s4.34-1.68,4.34-1.68l0.98,1.68s-2.52,2.24-5.6,2.24c-4.62,0-7-2.94-7-7.7c0-4.48,2.8-7.7,7.28-7.7c2.52,0,4.76,1.12,4.76,1.12l-0.14,3.78l-1.82,0z M259.0536,110.64l0.308,2.408s0.84,0.252,2.352,0.252c1.68,0,3.164-0.476,3.164-2.212c0-3.024-7.812-1.624-7.812-6.72c0-2.912,2.24-4.368,5.124-4.368c2.212,0,4.788,0.84,4.788,0.84l-0.084,3.78l-1.82,0l-0.448-2.184s-0.868-0.336-2.268-0.336c-1.428,0-2.492,0.448-2.492,1.876c0,2.996,7.812,1.848,7.812,6.636c0,3.22-2.8,4.788-6.16,4.788c-2.576,0-4.424-0.616-4.424-0.616l0-4.144l1.96,0z"/></svg>
